<?xml version="1.0" encoding="iso-8859-1"?>
<!-- Uploaded to: SVG Repo, www.svgrepo.com, Generator: SVG Repo Mixer Tools -->
<svg fill="#ef476f" version="1.1" id="Capa_1" xmlns="http://www.w3.org/2000/svg" xmlns:xlink="http://www.w3.org/1999/xlink" 
	 viewBox="0 0 60 60" xml:space="preserve">
<g>
	<g>
		<g>
			<path d="M56,24c0-6.6-5.4-12-12-12s-12,5.4-12,12s5.4,12,12,12S56,30.6,56,24z M44,34c-5.5,0-10-4.5-10-10s4.5-10,10-10
				s10,4.5,10,10S49.5,34,44,34z"/>
			<path d="M60,24c0-8.8-7.2-16-16-16s-16,7.2-16,16c0,7.3,5,13.7,12,15.5V44h-2c-0.6,0-1,0.4-1,1v14c0,0.6,0.4,1,1,1h12
				c0.6,0,1-0.4,1-1V45c0-0.6-0.4-1-1-1h-2v-4.5C55,37.7,60,31.3,60,24z M49,58H39v-3h6v-2h-6v-2h6v-2h-6v-3h2h6h2V58z M42,44v-5.3
				c0-0.5-0.3-0.9-0.8-1C34.7,36.4,30,30.6,30,24c0-7.7,6.3-14,14-14s14,6.3,14,14c0,6.6-4.7,12.4-11.2,13.7c-0.5,0.1-0.8,0.5-0.8,1
				V44H42z"/>
			<path d="M2,18h21v-2H9V4c0-1.1,0.9-2,2-2h26c1.1,0,2,0.9,2,2v2h2V4c0-2.2-1.8-4-4-4H11C8.8,0,7,1.8,7,4v12H1c-0.6,0-1,0.4-1,1v42
				c0,0.6,0.4,1,1,1h31v-2H2V18z"/>
			<path d="M21,52h6c0.6,0,1-0.4,1-1V37h-2v13h-4V37.3c0-0.4-0.3-0.7-0.6-0.9c-2.1-1.1-3.4-3.2-3.4-5.5c0-3.3,2.7-6,6-6v-2
				c-4.4,0-8,3.6-8,8c0,2.9,1.5,5.5,4,7V51C20,51.6,20.4,52,21,52z"/>
			<rect x="22" y="30" width="4" height="2"/>
			<rect x="6" y="21" width="2" height="18"/>
			<rect x="6" y="42" width="2" height="4"/>
			<rect x="43" y="22" width="2" height="2"/>
			<rect x="47" y="22" width="2" height="2"/>
			<rect x="39" y="22" width="2" height="2"/>
			<rect x="43" y="18" width="2" height="2"/>
			<rect x="39" y="18" width="2" height="2"/>
			<rect x="39" y="26" width="2" height="2"/>
			<rect x="43" y="26" width="2" height="2"/>
			<rect x="43" y="30" width="2" height="2"/>
			<rect x="47" y="26" width="2" height="2"/>
			<rect x="47" y="18" width="2" height="2"/>
		</g>
	</g>
	<g>
	</g>
	<g>
	</g>
	<g>
	</g>
	<g>
	</g>
	<g>
	</g>
	<g>
	</g>
	<g>
	</g>
	<g>
	</g>
	<g>
	</g>
	<g>
	</g>
	<g>
	</g>
	<g>
	</g>
	<g>
	</g>
	<g>
	</g>
	<g>
	</g>
</g>
</svg>